<svg id="visual" viewBox="0 0 2000 2000" width="2000" height="2000" xmlns="http://www.w3.org/2000/svg" xmlns:xlink="http://www.w3.org/1999/xlink" version="1.1"><g stroke-width="1" stroke-linejoin="bevel"><path d="M1066.7 956.3L1081.7 1026.7L1181 899.3Z" fill="#cce9f9" stroke="#cce9f9"></path><path d="M1081.7 1026.7L1235 1031.7L1181 899.3Z" fill="#9fd8f4" stroke="#9fd8f4"></path><path d="M1235 1031.7L1335.3 950.3L1181 899.3Z" fill="#d6edfa" stroke="#d6edfa"></path><path d="M1327.3 823L1171 783L1181 899.3Z" fill="#c1e5f8" stroke="#c1e5f8"></path><path d="M1181 899.3L1028.7 791L1066.7 956.3Z" fill="#c1e5f8" stroke="#c1e5f8"></path><path d="M1366.3 1193L1327.3 1050.7L1235 1031.7Z" fill="#93d4f3" stroke="#93d4f3"></path><path d="M1235 1031.7L1327.3 1050.7L1335.3 950.3Z" fill="#9fd8f4" stroke="#9fd8f4"></path><path d="M1171 783L1028.7 791L1181 899.3Z" fill="#93d4f3" stroke="#93d4f3"></path><path d="M898.3 1073.7L1102.7 1202L1081.7 1026.7Z" fill="#b6e1f7" stroke="#b6e1f7"></path><path d="M898.3 1073.7L1081.7 1026.7L1066.7 956.3Z" fill="#ffffff" stroke="#ffffff"></path><path d="M1081.7 1026.7L1102.7 1202L1235 1031.7Z" fill="#9fd8f4" stroke="#9fd8f4"></path><path d="M1335.3 950.3L1327.3 823L1181 899.3Z" fill="#93d4f3" stroke="#93d4f3"></path><path d="M1102.7 1202L1166 1223L1235 1031.7Z" fill="#ffffff" stroke="#ffffff"></path><path d="M1028.7 791L902.3 896.3L1066.7 956.3Z" fill="#c1e5f8" stroke="#c1e5f8"></path><path d="M902.3 896.3L898.3 1073.7L1066.7 956.3Z" fill="#93d4f3" stroke="#93d4f3"></path><path d="M1166 1223L1366.3 1193L1235 1031.7Z" fill="#b6e1f7" stroke="#b6e1f7"></path><path d="M1327.3 1050.7L1464.7 947.3L1335.3 950.3Z" fill="#e1f2fb" stroke="#e1f2fb"></path><path d="M1335.3 950.3L1441.7 839L1327.3 823Z" fill="#93d4f3" stroke="#93d4f3"></path><path d="M1456.7 1099.7L1464.7 947.3L1327.3 1050.7Z" fill="#abdcf5" stroke="#abdcf5"></path><path d="M902.3 896.3L829 969.3L898.3 1073.7Z" fill="#e1f2fb" stroke="#e1f2fb"></path><path d="M967.3 685.7L908.3 762L1028.7 791Z" fill="#9fd8f4" stroke="#9fd8f4"></path><path d="M1028.7 791L908.3 762L902.3 896.3Z" fill="#abdcf5" stroke="#abdcf5"></path><path d="M902.3 896.3L770 809L829 969.3Z" fill="#b6e1f7" stroke="#b6e1f7"></path><path d="M1464.7 947.3L1441.7 839L1335.3 950.3Z" fill="#ffffff" stroke="#ffffff"></path><path d="M1360.3 692.7L1197 653.7L1171 783Z" fill="#9fd8f4" stroke="#9fd8f4"></path><path d="M1360.3 692.7L1171 783L1327.3 823Z" fill="#e1f2fb" stroke="#e1f2fb"></path><path d="M1171 783L1034.7 636.7L1028.7 791Z" fill="#d6edfa" stroke="#d6edfa"></path><path d="M1366.3 1193L1456.7 1099.7L1327.3 1050.7Z" fill="#ffffff" stroke="#ffffff"></path><path d="M809 1212L923.3 1222L898.3 1073.7Z" fill="#9fd8f4" stroke="#9fd8f4"></path><path d="M898.3 1073.7L923.3 1222L1102.7 1202Z" fill="#93d4f3" stroke="#93d4f3"></path><path d="M1093.7 1347.3L1171 1327.3L1166 1223Z" fill="#b6e1f7" stroke="#b6e1f7"></path><path d="M1034.7 636.7L967.3 685.7L1028.7 791Z" fill="#f5fbfe" stroke="#f5fbfe"></path><path d="M1093.7 1347.3L1166 1223L1102.7 1202Z" fill="#abdcf5" stroke="#abdcf5"></path><path d="M1166 1223L1171 1327.3L1366.3 1193Z" fill="#ffffff" stroke="#ffffff"></path><path d="M1441.7 839L1360.3 692.7L1327.3 823Z" fill="#f5fbfe" stroke="#f5fbfe"></path><path d="M1197 653.7L1034.7 636.7L1171 783Z" fill="#c1e5f8" stroke="#c1e5f8"></path><path d="M923.3 1222L1093.7 1347.3L1102.7 1202Z" fill="#9fd8f4" stroke="#9fd8f4"></path><path d="M653.7 1051.7L777 1080.7L829 969.3Z" fill="#ebf6fd" stroke="#ebf6fd"></path><path d="M829 969.3L777 1080.7L898.3 1073.7Z" fill="#cce9f9" stroke="#cce9f9"></path><path d="M1468.7 1352.3L1483.7 1199L1366.3 1193Z" fill="#e1f2fb" stroke="#e1f2fb"></path><path d="M1366.3 1193L1483.7 1199L1456.7 1099.7Z" fill="#9fd8f4" stroke="#9fd8f4"></path><path d="M1633 1035.7L1567 930.3L1464.7 947.3Z" fill="#ebf6fd" stroke="#ebf6fd"></path><path d="M808 629.7L770 809L908.3 762Z" fill="#d6edfa" stroke="#d6edfa"></path><path d="M908.3 762L770 809L902.3 896.3Z" fill="#9fd8f4" stroke="#9fd8f4"></path><path d="M808 629.7L908.3 762L967.3 685.7Z" fill="#9fd8f4" stroke="#9fd8f4"></path><path d="M777 1080.7L809 1212L898.3 1073.7Z" fill="#cce9f9" stroke="#cce9f9"></path><path d="M923.3 1222L925.3 1346.3L1093.7 1347.3Z" fill="#9fd8f4" stroke="#9fd8f4"></path><path d="M1633 1035.7L1464.7 947.3L1456.7 1099.7Z" fill="#f5fbfe" stroke="#f5fbfe"></path><path d="M1464.7 947.3L1567 930.3L1441.7 839Z" fill="#f5fbfe" stroke="#f5fbfe"></path><path d="M1441.7 839L1502.7 700.7L1360.3 692.7Z" fill="#b6e1f7" stroke="#b6e1f7"></path><path d="M809 1212L925.3 1346.3L923.3 1222Z" fill="#ebf6fd" stroke="#ebf6fd"></path><path d="M1191 503.3L1030.7 554.3L1197 653.7Z" fill="#9fd8f4" stroke="#9fd8f4"></path><path d="M1197 653.7L1030.7 554.3L1034.7 636.7Z" fill="#f5fbfe" stroke="#f5fbfe"></path><path d="M1034.7 636.7L960.3 542.3L967.3 685.7Z" fill="#c1e5f8" stroke="#c1e5f8"></path><path d="M1235 1466.7L1360.3 1365.3L1171 1327.3Z" fill="#ebf6fd" stroke="#ebf6fd"></path><path d="M1171 1327.3L1360.3 1365.3L1366.3 1193Z" fill="#c1e5f8" stroke="#c1e5f8"></path><path d="M1101.7 1429.7L1171 1327.3L1093.7 1347.3Z" fill="#ebf6fd" stroke="#ebf6fd"></path><path d="M1636 829L1502.7 700.7L1441.7 839Z" fill="#9fd8f4" stroke="#9fd8f4"></path><path d="M1360.3 692.7L1313.3 556.3L1197 653.7Z" fill="#abdcf5" stroke="#abdcf5"></path><path d="M1481.7 515.3L1313.3 556.3L1360.3 692.7Z" fill="#f5fbfe" stroke="#f5fbfe"></path><path d="M966.3 1456.7L1101.7 1429.7L1093.7 1347.3Z" fill="#d6edfa" stroke="#d6edfa"></path><path d="M1080.7 399L960.3 542.3L1030.7 554.3Z" fill="#9fd8f4" stroke="#9fd8f4"></path><path d="M1030.7 554.3L960.3 542.3L1034.7 636.7Z" fill="#c1e5f8" stroke="#c1e5f8"></path><path d="M1313.3 556.3L1191 503.3L1197 653.7Z" fill="#f5fbfe" stroke="#f5fbfe"></path><path d="M960.3 542.3L808 629.7L967.3 685.7Z" fill="#93d4f3" stroke="#93d4f3"></path><path d="M1596 1185L1456.7 1099.7L1483.7 1199Z" fill="#e1f2fb" stroke="#e1f2fb"></path><path d="M1596 1185L1633 1035.7L1456.7 1099.7Z" fill="#e1f2fb" stroke="#e1f2fb"></path><path d="M1567 930.3L1636 829L1441.7 839Z" fill="#c1e5f8" stroke="#c1e5f8"></path><path d="M667.7 683.7L691.7 788L770 809Z" fill="#cce9f9" stroke="#cce9f9"></path><path d="M631.7 909.3L653.7 1051.7L829 969.3Z" fill="#b6e1f7" stroke="#b6e1f7"></path><path d="M777 1080.7L689.7 1238L809 1212Z" fill="#cce9f9" stroke="#cce9f9"></path><path d="M1627 1339.3L1596 1185L1483.7 1199Z" fill="#e1f2fb" stroke="#e1f2fb"></path><path d="M1427.7 1504.7L1468.7 1352.3L1360.3 1365.3Z" fill="#f5fbfe" stroke="#f5fbfe"></path><path d="M1360.3 1365.3L1468.7 1352.3L1366.3 1193Z" fill="#ebf6fd" stroke="#ebf6fd"></path><path d="M1101.7 1429.7L1235 1466.7L1171 1327.3Z" fill="#e1f2fb" stroke="#e1f2fb"></path><path d="M631.7 909.3L829 969.3L770 809Z" fill="#e1f2fb" stroke="#e1f2fb"></path><path d="M830 1435.7L966.3 1456.7L925.3 1346.3Z" fill="#ebf6fd" stroke="#ebf6fd"></path><path d="M1748.3 955.3L1636 829L1567 930.3Z" fill="#abdcf5" stroke="#abdcf5"></path><path d="M779 1343.3L925.3 1346.3L809 1212Z" fill="#e1f2fb" stroke="#e1f2fb"></path><path d="M925.3 1346.3L966.3 1456.7L1093.7 1347.3Z" fill="#9fd8f4" stroke="#9fd8f4"></path><path d="M1101.7 1429.7L1203 1605L1235 1466.7Z" fill="#ebf6fd" stroke="#ebf6fd"></path><path d="M691.7 788L631.7 909.3L770 809Z" fill="#d6edfa" stroke="#d6edfa"></path><path d="M689.7 1238L779 1343.3L809 1212Z" fill="#ffffff" stroke="#ffffff"></path><path d="M653.7 1051.7L689.7 1238L777 1080.7Z" fill="#ffffff" stroke="#ffffff"></path><path d="M1235 1466.7L1346.3 1468.7L1360.3 1365.3Z" fill="#ffffff" stroke="#ffffff"></path><path d="M779 1343.3L830 1435.7L925.3 1346.3Z" fill="#ebf6fd" stroke="#ebf6fd"></path><path d="M671.7 1458.7L830 1435.7L779 1343.3Z" fill="#93d4f3" stroke="#93d4f3"></path><path d="M808 629.7L667.7 683.7L770 809Z" fill="#abdcf5" stroke="#abdcf5"></path><path d="M510.3 818L547.3 895.3L631.7 909.3Z" fill="#d6edfa" stroke="#d6edfa"></path><path d="M657.7 497.3L667.7 683.7L808 629.7Z" fill="#abdcf5" stroke="#abdcf5"></path><path d="M1636 829L1635 689.7L1502.7 700.7Z" fill="#c1e5f8" stroke="#c1e5f8"></path><path d="M1502.7 700.7L1481.7 515.3L1360.3 692.7Z" fill="#93d4f3" stroke="#93d4f3"></path><path d="M1313.3 556.3L1309.3 425L1191 503.3Z" fill="#f5fbfe" stroke="#f5fbfe"></path><path d="M1581 494.3L1481.7 515.3L1502.7 700.7Z" fill="#93d4f3" stroke="#93d4f3"></path><path d="M531.3 1296.3L683.7 1305.3L689.7 1238Z" fill="#ebf6fd" stroke="#ebf6fd"></path><path d="M689.7 1238L683.7 1305.3L779 1343.3Z" fill="#ebf6fd" stroke="#ebf6fd"></path><path d="M522.3 1161L689.7 1238L653.7 1051.7Z" fill="#abdcf5" stroke="#abdcf5"></path><path d="M1481.7 515.3L1309.3 425L1313.3 556.3Z" fill="#c1e5f8" stroke="#c1e5f8"></path><path d="M1191 503.3L1080.7 399L1030.7 554.3Z" fill="#c1e5f8" stroke="#c1e5f8"></path><path d="M1161 395L1080.7 399L1191 503.3Z" fill="#abdcf5" stroke="#abdcf5"></path><path d="M960.3 542.3L781 501.3L808 629.7Z" fill="#f5fbfe" stroke="#f5fbfe"></path><path d="M1309.3 425L1161 395L1191 503.3Z" fill="#abdcf5" stroke="#abdcf5"></path><path d="M1627 1339.3L1698.3 1192L1596 1185Z" fill="#e1f2fb" stroke="#e1f2fb"></path><path d="M1596 1185L1698.3 1192L1633 1035.7Z" fill="#93d4f3" stroke="#93d4f3"></path><path d="M1633 1035.7L1748.3 955.3L1567 930.3Z" fill="#c1e5f8" stroke="#c1e5f8"></path><path d="M1636 829L1730.3 771L1635 689.7Z" fill="#d6edfa" stroke="#d6edfa"></path><path d="M1627 1339.3L1483.7 1199L1468.7 1352.3Z" fill="#e1f2fb" stroke="#e1f2fb"></path><path d="M1361.3 1591L1427.7 1504.7L1346.3 1468.7Z" fill="#9fd8f4" stroke="#9fd8f4"></path><path d="M1346.3 1468.7L1427.7 1504.7L1360.3 1365.3Z" fill="#ebf6fd" stroke="#ebf6fd"></path><path d="M1361.3 1591L1346.3 1468.7L1235 1466.7Z" fill="#93d4f3" stroke="#93d4f3"></path><path d="M1080.7 399L897.3 432L960.3 542.3Z" fill="#93d4f3" stroke="#93d4f3"></path><path d="M897.3 432L781 501.3L960.3 542.3Z" fill="#d6edfa" stroke="#d6edfa"></path><path d="M1741.3 1095.7L1748.3 955.3L1633 1035.7Z" fill="#d6edfa" stroke="#d6edfa"></path><path d="M1636 1477.7L1627 1339.3L1468.7 1352.3Z" fill="#cce9f9" stroke="#cce9f9"></path><path d="M1698.3 1192L1741.3 1095.7L1633 1035.7Z" fill="#9fd8f4" stroke="#9fd8f4"></path><path d="M510.3 818L631.7 909.3L691.7 788Z" fill="#ebf6fd" stroke="#ebf6fd"></path><path d="M631.7 909.3L547.3 895.3L653.7 1051.7Z" fill="#cce9f9" stroke="#cce9f9"></path><path d="M1748.3 955.3L1730.3 771L1636 829Z" fill="#f5fbfe" stroke="#f5fbfe"></path><path d="M1635 689.7L1581 494.3L1502.7 700.7Z" fill="#ebf6fd" stroke="#ebf6fd"></path><path d="M967.3 1608L1057.7 1590L966.3 1456.7Z" fill="#d6edfa" stroke="#d6edfa"></path><path d="M966.3 1456.7L1057.7 1590L1101.7 1429.7Z" fill="#ebf6fd" stroke="#ebf6fd"></path><path d="M547.3 895.3L532.3 1083.7L653.7 1051.7Z" fill="#c1e5f8" stroke="#c1e5f8"></path><path d="M1057.7 1590L1203 1605L1101.7 1429.7Z" fill="#d6edfa" stroke="#d6edfa"></path><path d="M1733.3 549.3L1581 494.3L1635 689.7Z" fill="#abdcf5" stroke="#abdcf5"></path><path d="M1481.7 515.3L1463.7 369L1309.3 425Z" fill="#9fd8f4" stroke="#9fd8f4"></path><path d="M1203 1605L1361.3 1591L1235 1466.7Z" fill="#c1e5f8" stroke="#c1e5f8"></path><path d="M1763.3 1429.7L1730.3 1304.3L1627 1339.3Z" fill="#ffffff" stroke="#ffffff"></path><path d="M429 1050.7L522.3 1161L532.3 1083.7Z" fill="#ffffff" stroke="#ffffff"></path><path d="M532.3 1083.7L522.3 1161L653.7 1051.7Z" fill="#f5fbfe" stroke="#f5fbfe"></path><path d="M667.7 683.7L510.3 818L691.7 788Z" fill="#ffffff" stroke="#ffffff"></path><path d="M547.3 895.3L429 1050.7L532.3 1083.7Z" fill="#9fd8f4" stroke="#9fd8f4"></path><path d="M534.3 631.7L510.3 818L667.7 683.7Z" fill="#9fd8f4" stroke="#9fd8f4"></path><path d="M830 1435.7L967.3 1608L966.3 1456.7Z" fill="#9fd8f4" stroke="#9fd8f4"></path><path d="M1057.7 1590L1193 1702.3L1203 1605Z" fill="#93d4f3" stroke="#93d4f3"></path><path d="M764 1632L967.3 1608L830 1435.7Z" fill="#c1e5f8" stroke="#c1e5f8"></path><path d="M671.7 1458.7L779 1343.3L683.7 1305.3Z" fill="#d6edfa" stroke="#d6edfa"></path><path d="M1627 1339.3L1730.3 1304.3L1698.3 1192Z" fill="#f5fbfe" stroke="#f5fbfe"></path><path d="M1873.7 1188L1835.7 1062.7L1741.3 1095.7Z" fill="#d6edfa" stroke="#d6edfa"></path><path d="M1636 1477.7L1468.7 1352.3L1427.7 1504.7Z" fill="#abdcf5" stroke="#abdcf5"></path><path d="M1361.3 1591L1463.7 1574L1427.7 1504.7Z" fill="#d6edfa" stroke="#d6edfa"></path><path d="M897.3 432L789 402L781 501.3Z" fill="#ffffff" stroke="#ffffff"></path><path d="M781 501.3L657.7 497.3L808 629.7Z" fill="#f5fbfe" stroke="#f5fbfe"></path><path d="M810 286.7L789 402L897.3 432Z" fill="#e1f2fb" stroke="#e1f2fb"></path><path d="M923.3 277.7L897.3 432L1080.7 399Z" fill="#cce9f9" stroke="#cce9f9"></path><path d="M531.3 1296.3L671.7 1458.7L683.7 1305.3Z" fill="#9fd8f4" stroke="#9fd8f4"></path><path d="M1844.7 695.7L1737.3 640.7L1730.3 771Z" fill="#cce9f9" stroke="#cce9f9"></path><path d="M1730.3 771L1737.3 640.7L1635 689.7Z" fill="#f5fbfe" stroke="#f5fbfe"></path><path d="M1574 436L1481.7 515.3L1581 494.3Z" fill="#b6e1f7" stroke="#b6e1f7"></path><path d="M1574 436L1463.7 369L1481.7 515.3Z" fill="#c1e5f8" stroke="#c1e5f8"></path><path d="M1309.3 425L1180 275.7L1161 395Z" fill="#e1f2fb" stroke="#e1f2fb"></path><path d="M1161 395L1180 275.7L1080.7 399Z" fill="#ffffff" stroke="#ffffff"></path><path d="M666.7 397L657.7 497.3L781 501.3Z" fill="#d6edfa" stroke="#d6edfa"></path><path d="M1734.3 401L1574 436L1581 494.3Z" fill="#ebf6fd" stroke="#ebf6fd"></path><path d="M1873.7 1188L1741.3 1095.7L1698.3 1192Z" fill="#ebf6fd" stroke="#ebf6fd"></path><path d="M1741.3 1095.7L1835.7 1062.7L1748.3 955.3Z" fill="#c1e5f8" stroke="#c1e5f8"></path><path d="M1748.3 955.3L1857.7 793L1730.3 771Z" fill="#ffffff" stroke="#ffffff"></path><path d="M522.3 1161L531.3 1296.3L689.7 1238Z" fill="#f5fbfe" stroke="#f5fbfe"></path><path d="M1835.7 1062.7L1842.7 960.3L1748.3 955.3Z" fill="#ebf6fd" stroke="#ebf6fd"></path><path d="M1463.7 1574L1636 1477.7L1427.7 1504.7Z" fill="#ebf6fd" stroke="#ebf6fd"></path><path d="M1319.3 266.7L1180 275.7L1309.3 425Z" fill="#ebf6fd" stroke="#ebf6fd"></path><path d="M563.3 523.3L534.3 631.7L667.7 683.7Z" fill="#e1f2fb" stroke="#e1f2fb"></path><path d="M410 927.3L429 1050.7L547.3 895.3Z" fill="#9fd8f4" stroke="#9fd8f4"></path><path d="M522.3 1161L424 1180L531.3 1296.3Z" fill="#f5fbfe" stroke="#f5fbfe"></path><path d="M410 927.3L547.3 895.3L510.3 818Z" fill="#d6edfa" stroke="#d6edfa"></path><path d="M1844.7 695.7L1733.3 549.3L1737.3 640.7Z" fill="#ebf6fd" stroke="#ebf6fd"></path><path d="M1737.3 640.7L1733.3 549.3L1635 689.7Z" fill="#c1e5f8" stroke="#c1e5f8"></path><path d="M1028.7 1737.3L1193 1702.3L1057.7 1590Z" fill="#b6e1f7" stroke="#b6e1f7"></path><path d="M1203 1605L1345.3 1747.3L1361.3 1591Z" fill="#ebf6fd" stroke="#ebf6fd"></path><path d="M1447.7 1750.3L1561 1635L1463.7 1574Z" fill="#ebf6fd" stroke="#ebf6fd"></path><path d="M1463.7 369L1319.3 266.7L1309.3 425Z" fill="#d6edfa" stroke="#d6edfa"></path><path d="M1484.7 241.7L1319.3 266.7L1463.7 369Z" fill="#93d4f3" stroke="#93d4f3"></path><path d="M2000 909.3L1857.7 793L1842.7 960.3Z" fill="#f5fbfe" stroke="#f5fbfe"></path><path d="M1842.7 960.3L1857.7 793L1748.3 955.3Z" fill="#d6edfa" stroke="#d6edfa"></path><path d="M1071.7 232.7L1080.7 399L1180 275.7Z" fill="#abdcf5" stroke="#abdcf5"></path><path d="M1071.7 232.7L923.3 277.7L1080.7 399Z" fill="#cce9f9" stroke="#cce9f9"></path><path d="M550.3 389L563.3 523.3L657.7 497.3Z" fill="#93d4f3" stroke="#93d4f3"></path><path d="M657.7 497.3L563.3 523.3L667.7 683.7Z" fill="#d6edfa" stroke="#d6edfa"></path><path d="M666.7 397L781 501.3L789 402Z" fill="#d6edfa" stroke="#d6edfa"></path><path d="M414 834L510.3 818L421 639.7Z" fill="#c1e5f8" stroke="#c1e5f8"></path><path d="M414 834L410 927.3L510.3 818Z" fill="#93d4f3" stroke="#93d4f3"></path><path d="M1200 148.3L1071.7 232.7L1180 275.7Z" fill="#f5fbfe" stroke="#f5fbfe"></path><path d="M421 639.7L510.3 818L534.3 631.7Z" fill="#c1e5f8" stroke="#c1e5f8"></path><path d="M1857.7 793L1844.7 695.7L1730.3 771Z" fill="#f5fbfe" stroke="#f5fbfe"></path><path d="M305.7 1167L424 1180L429 1050.7Z" fill="#cce9f9" stroke="#cce9f9"></path><path d="M429 1050.7L424 1180L522.3 1161Z" fill="#f5fbfe" stroke="#f5fbfe"></path><path d="M674.7 1574L830 1435.7L671.7 1458.7Z" fill="#c1e5f8" stroke="#c1e5f8"></path><path d="M679.7 273.7L666.7 397L789 402Z" fill="#c1e5f8" stroke="#c1e5f8"></path><path d="M764 1632L956.3 1706.3L967.3 1608Z" fill="#cce9f9" stroke="#cce9f9"></path><path d="M967.3 1608L1028.7 1737.3L1057.7 1590Z" fill="#93d4f3" stroke="#93d4f3"></path><path d="M1730.3 1304.3L1873.7 1188L1698.3 1192Z" fill="#f5fbfe" stroke="#f5fbfe"></path><path d="M2000 1067.7L2000 909.3L1842.7 960.3Z" fill="#d6edfa" stroke="#d6edfa"></path><path d="M1834.7 1355.3L1873.7 1188L1730.3 1304.3Z" fill="#ebf6fd" stroke="#ebf6fd"></path><path d="M674.7 1574L671.7 1458.7L532.3 1484.7Z" fill="#cce9f9" stroke="#cce9f9"></path><path d="M674.7 1574L764 1632L830 1435.7Z" fill="#f5fbfe" stroke="#f5fbfe"></path><path d="M532.3 1484.7L671.7 1458.7L531.3 1296.3Z" fill="#cce9f9" stroke="#cce9f9"></path><path d="M1859.7 1461.7L1763.3 1429.7L1846.7 1585Z" fill="#e1f2fb" stroke="#e1f2fb"></path><path d="M1636 1477.7L1763.3 1429.7L1627 1339.3Z" fill="#f5fbfe" stroke="#f5fbfe"></path><path d="M923.3 277.7L810 286.7L897.3 432Z" fill="#c1e5f8" stroke="#c1e5f8"></path><path d="M822 116.3L810 286.7L923.3 277.7Z" fill="#cce9f9" stroke="#cce9f9"></path><path d="M1056.7 1857.7L1028.7 1737.3L924.3 1893.7Z" fill="#abdcf5" stroke="#abdcf5"></path><path d="M956.3 1706.3L1028.7 1737.3L967.3 1608Z" fill="#cce9f9" stroke="#cce9f9"></path><path d="M1447.7 1750.3L1463.7 1574L1361.3 1591Z" fill="#f5fbfe" stroke="#f5fbfe"></path><path d="M1463.7 1574L1561 1635L1636 1477.7Z" fill="#c1e5f8" stroke="#c1e5f8"></path><path d="M1345.3 1747.3L1203 1605L1193 1702.3Z" fill="#abdcf5" stroke="#abdcf5"></path><path d="M1763.3 1429.7L1834.7 1355.3L1730.3 1304.3Z" fill="#93d4f3" stroke="#93d4f3"></path><path d="M1187 1864.7L1345.3 1747.3L1193 1702.3Z" fill="#e1f2fb" stroke="#e1f2fb"></path><path d="M429 1454.7L532.3 1484.7L531.3 1296.3Z" fill="#e1f2fb" stroke="#e1f2fb"></path><path d="M674.7 1574L672.7 1762.3L764 1632Z" fill="#f5fbfe" stroke="#f5fbfe"></path><path d="M407 555.3L534.3 631.7L563.3 523.3Z" fill="#e1f2fb" stroke="#e1f2fb"></path><path d="M407 555.3L421 639.7L534.3 631.7Z" fill="#b6e1f7" stroke="#b6e1f7"></path><path d="M250.7 905.3L301.7 1038.7L410 927.3Z" fill="#9fd8f4" stroke="#9fd8f4"></path><path d="M1618 265.7L1463.7 369L1574 436Z" fill="#f5fbfe" stroke="#f5fbfe"></path><path d="M1618 265.7L1484.7 241.7L1463.7 369Z" fill="#ffffff" stroke="#ffffff"></path><path d="M1082.7 117.3L953.3 171.3L1071.7 232.7Z" fill="#e1f2fb" stroke="#e1f2fb"></path><path d="M1875.7 410L1734.3 401L1733.3 549.3Z" fill="#abdcf5" stroke="#abdcf5"></path><path d="M1733.3 549.3L1734.3 401L1581 494.3Z" fill="#ebf6fd" stroke="#ebf6fd"></path><path d="M1200 148.3L1180 275.7L1319.3 266.7Z" fill="#c1e5f8" stroke="#c1e5f8"></path><path d="M1071.7 232.7L953.3 171.3L923.3 277.7Z" fill="#d6edfa" stroke="#d6edfa"></path><path d="M679.7 273.7L550.3 389L666.7 397Z" fill="#abdcf5" stroke="#abdcf5"></path><path d="M1332.3 153.3L1200 148.3L1319.3 266.7Z" fill="#cce9f9" stroke="#cce9f9"></path><path d="M1345.3 1747.3L1447.7 1750.3L1361.3 1591Z" fill="#abdcf5" stroke="#abdcf5"></path><path d="M1754.3 1605L1763.3 1429.7L1636 1477.7Z" fill="#93d4f3" stroke="#93d4f3"></path><path d="M666.7 397L550.3 389L657.7 497.3Z" fill="#cce9f9" stroke="#cce9f9"></path><path d="M679.7 273.7L789 402L810 286.7Z" fill="#f5fbfe" stroke="#f5fbfe"></path><path d="M1484.7 241.7L1332.3 153.3L1319.3 266.7Z" fill="#d6edfa" stroke="#d6edfa"></path><path d="M822 116.3L679.7 273.7L810 286.7Z" fill="#cce9f9" stroke="#cce9f9"></path><path d="M410 927.3L301.7 1038.7L429 1050.7Z" fill="#d6edfa" stroke="#d6edfa"></path><path d="M424 1180L386 1356.3L531.3 1296.3Z" fill="#b6e1f7" stroke="#b6e1f7"></path><path d="M263.7 830L410 927.3L414 834Z" fill="#9fd8f4" stroke="#9fd8f4"></path><path d="M305.7 1167L386 1356.3L424 1180Z" fill="#c1e5f8" stroke="#c1e5f8"></path><path d="M1734.3 401L1618 265.7L1574 436Z" fill="#abdcf5" stroke="#abdcf5"></path><path d="M1484.7 241.7L1474.7 96.3L1332.3 153.3Z" fill="#ffffff" stroke="#ffffff"></path><path d="M550.3 389L407 555.3L563.3 523.3Z" fill="#abdcf5" stroke="#abdcf5"></path><path d="M254.7 652.7L263.7 830L414 834Z" fill="#ebf6fd" stroke="#ebf6fd"></path><path d="M2000 1067.7L1842.7 960.3L1835.7 1062.7Z" fill="#b6e1f7" stroke="#b6e1f7"></path><path d="M1857.7 793L2000 672.7L1844.7 695.7Z" fill="#ffffff" stroke="#ffffff"></path><path d="M1844.7 695.7L1904.7 503.3L1733.3 549.3Z" fill="#f5fbfe" stroke="#f5fbfe"></path><path d="M2000 1067.7L1835.7 1062.7L1873.7 1188Z" fill="#93d4f3" stroke="#93d4f3"></path><path d="M2000 1226L2000 1067.7L1873.7 1188Z" fill="#c1e5f8" stroke="#c1e5f8"></path><path d="M532.3 1484.7L570.3 1610L674.7 1574Z" fill="#d6edfa" stroke="#d6edfa"></path><path d="M764 1632L786 1772.3L956.3 1706.3Z" fill="#93d4f3" stroke="#93d4f3"></path><path d="M396 1560L570.3 1610L532.3 1484.7Z" fill="#d6edfa" stroke="#d6edfa"></path><path d="M1200 148.3L1082.7 117.3L1071.7 232.7Z" fill="#c1e5f8" stroke="#c1e5f8"></path><path d="M953.3 171.3L822 116.3L923.3 277.7Z" fill="#cce9f9" stroke="#cce9f9"></path><path d="M1060.7 0L1082.7 117.3L1235 0Z" fill="#9fd8f4" stroke="#9fd8f4"></path><path d="M1763.3 1429.7L1859.7 1461.7L1834.7 1355.3Z" fill="#d6edfa" stroke="#d6edfa"></path><path d="M2000 1296.3L2000 1226L1873.7 1188Z" fill="#f5fbfe" stroke="#f5fbfe"></path><path d="M1754.3 1605L1636 1477.7L1561 1635Z" fill="#93d4f3" stroke="#93d4f3"></path><path d="M301.7 1038.7L305.7 1167L429 1050.7Z" fill="#f5fbfe" stroke="#f5fbfe"></path><path d="M386 1356.3L429 1454.7L531.3 1296.3Z" fill="#93d4f3" stroke="#93d4f3"></path><path d="M2000 909.3L2000 825L1857.7 793Z" fill="#b6e1f7" stroke="#b6e1f7"></path><path d="M1447.7 1750.3L1588 1721.3L1561 1635Z" fill="#d6edfa" stroke="#d6edfa"></path><path d="M1588 1721.3L1754.3 1605L1561 1635Z" fill="#f5fbfe" stroke="#f5fbfe"></path><path d="M672.7 1762.3L786 1772.3L764 1632Z" fill="#93d4f3" stroke="#93d4f3"></path><path d="M1028.7 1737.3L1056.7 1857.7L1193 1702.3Z" fill="#ffffff" stroke="#ffffff"></path><path d="M1345.3 1747.3L1432.7 1874.7L1447.7 1750.3Z" fill="#e1f2fb" stroke="#e1f2fb"></path><path d="M924.3 1893.7L1028.7 1737.3L956.3 1706.3Z" fill="#d6edfa" stroke="#d6edfa"></path><path d="M1447.7 1750.3L1598 1881.7L1588 1721.3Z" fill="#9fd8f4" stroke="#9fd8f4"></path><path d="M2000 1296.3L1873.7 1188L1834.7 1355.3Z" fill="#d6edfa" stroke="#d6edfa"></path><path d="M1056.7 1857.7L1187 1864.7L1193 1702.3Z" fill="#abdcf5" stroke="#abdcf5"></path><path d="M2000 672.7L1904.7 503.3L1844.7 695.7Z" fill="#abdcf5" stroke="#abdcf5"></path><path d="M1734.3 401L1765.3 230.7L1618 265.7Z" fill="#cce9f9" stroke="#cce9f9"></path><path d="M254.7 652.7L414 834L421 639.7Z" fill="#d6edfa" stroke="#d6edfa"></path><path d="M301.7 1038.7L147.3 1062.7L305.7 1167Z" fill="#d6edfa" stroke="#d6edfa"></path><path d="M263.7 830L250.7 905.3L410 927.3Z" fill="#ffffff" stroke="#ffffff"></path><path d="M2000 825L2000 672.7L1857.7 793Z" fill="#d6edfa" stroke="#d6edfa"></path><path d="M2000 1457.7L1834.7 1355.3L1859.7 1461.7Z" fill="#e1f2fb" stroke="#e1f2fb"></path><path d="M2000 1457.7L2000 1296.3L1834.7 1355.3Z" fill="#cce9f9" stroke="#cce9f9"></path><path d="M570.3 1610L672.7 1762.3L674.7 1574Z" fill="#b6e1f7" stroke="#b6e1f7"></path><path d="M786 1772.3L821 1835.7L956.3 1706.3Z" fill="#ffffff" stroke="#ffffff"></path><path d="M521.3 1696.3L672.7 1762.3L570.3 1610Z" fill="#9fd8f4" stroke="#9fd8f4"></path><path d="M913.3 0L822 116.3L953.3 171.3Z" fill="#9fd8f4" stroke="#9fd8f4"></path><path d="M679.7 273.7L537.3 254.7L550.3 389Z" fill="#93d4f3" stroke="#93d4f3"></path><path d="M652.7 1849.7L821 1835.7L786 1772.3Z" fill="#93d4f3" stroke="#93d4f3"></path><path d="M2000 408L1875.7 410L1904.7 503.3Z" fill="#f5fbfe" stroke="#f5fbfe"></path><path d="M1904.7 503.3L1875.7 410L1733.3 549.3Z" fill="#cce9f9" stroke="#cce9f9"></path><path d="M1754.3 1605L1846.7 1585L1763.3 1429.7Z" fill="#9fd8f4" stroke="#9fd8f4"></path><path d="M1849.7 1766.3L1846.7 1585L1754.3 1605Z" fill="#f5fbfe" stroke="#f5fbfe"></path><path d="M1193 2000L1360.3 1887.7L1187 1864.7Z" fill="#c1e5f8" stroke="#c1e5f8"></path><path d="M1187 1864.7L1360.3 1887.7L1345.3 1747.3Z" fill="#e1f2fb" stroke="#e1f2fb"></path><path d="M1588 1721.3L1714.3 1742.3L1754.3 1605Z" fill="#abdcf5" stroke="#abdcf5"></path><path d="M1193 2000L1187 1864.7L1078.7 2000Z" fill="#d6edfa" stroke="#d6edfa"></path><path d="M386 1356.3L291.7 1474.7L429 1454.7Z" fill="#ebf6fd" stroke="#ebf6fd"></path><path d="M429 1454.7L396 1560L532.3 1484.7Z" fill="#ffffff" stroke="#ffffff"></path><path d="M305.7 1167L294.7 1363.3L386 1356.3Z" fill="#c1e5f8" stroke="#c1e5f8"></path><path d="M124.3 1314.3L294.7 1363.3L305.7 1167Z" fill="#9fd8f4" stroke="#9fd8f4"></path><path d="M1629 111.3L1484.7 241.7L1618 265.7Z" fill="#abdcf5" stroke="#abdcf5"></path><path d="M1629 111.3L1474.7 96.3L1484.7 241.7Z" fill="#d6edfa" stroke="#d6edfa"></path><path d="M1235 0L1082.7 117.3L1200 148.3Z" fill="#ffffff" stroke="#ffffff"></path><path d="M1082.7 117.3L1060.7 0L953.3 171.3Z" fill="#ebf6fd" stroke="#ebf6fd"></path><path d="M1360.3 1887.7L1432.7 1874.7L1345.3 1747.3Z" fill="#ebf6fd" stroke="#ebf6fd"></path><path d="M909.3 2000L924.3 1893.7L802 2000Z" fill="#d6edfa" stroke="#d6edfa"></path><path d="M821 1835.7L924.3 1893.7L956.3 1706.3Z" fill="#cce9f9" stroke="#cce9f9"></path><path d="M564.3 137.3L537.3 254.7L679.7 273.7Z" fill="#d6edfa" stroke="#d6edfa"></path><path d="M550.3 389L361 397L407 555.3Z" fill="#c1e5f8" stroke="#c1e5f8"></path><path d="M407 555.3L254.7 652.7L421 639.7Z" fill="#d6edfa" stroke="#d6edfa"></path><path d="M230.7 528.3L254.7 652.7L407 555.3Z" fill="#c1e5f8" stroke="#c1e5f8"></path><path d="M136.3 970.3L301.7 1038.7L250.7 905.3Z" fill="#abdcf5" stroke="#abdcf5"></path><path d="M291.7 1474.7L396 1560L429 1454.7Z" fill="#ebf6fd" stroke="#ebf6fd"></path><path d="M1598 1881.7L1714.3 1742.3L1588 1721.3Z" fill="#c1e5f8" stroke="#c1e5f8"></path><path d="M396 1560L521.3 1696.3L570.3 1610Z" fill="#f5fbfe" stroke="#f5fbfe"></path><path d="M672.7 1762.3L652.7 1849.7L786 1772.3Z" fill="#93d4f3" stroke="#93d4f3"></path><path d="M2000 672.7L2000 542.3L1904.7 503.3Z" fill="#e1f2fb" stroke="#e1f2fb"></path><path d="M1869.7 289.7L1765.3 230.7L1734.3 401Z" fill="#e1f2fb" stroke="#e1f2fb"></path><path d="M1869.7 289.7L1734.3 401L1875.7 410Z" fill="#b6e1f7" stroke="#b6e1f7"></path><path d="M537.3 254.7L361 397L550.3 389Z" fill="#abdcf5" stroke="#abdcf5"></path><path d="M2000 1624L2000 1457.7L1846.7 1585Z" fill="#cce9f9" stroke="#cce9f9"></path><path d="M1846.7 1585L2000 1457.7L1859.7 1461.7Z" fill="#abdcf5" stroke="#abdcf5"></path><path d="M1235 0L1200 148.3L1332.3 153.3Z" fill="#cce9f9" stroke="#cce9f9"></path><path d="M822 116.3L641.7 103.3L679.7 273.7Z" fill="#93d4f3" stroke="#93d4f3"></path><path d="M1351.3 0L1235 0L1332.3 153.3Z" fill="#ebf6fd" stroke="#ebf6fd"></path><path d="M1767.3 169.3L1629 111.3L1618 265.7Z" fill="#d6edfa" stroke="#d6edfa"></path><path d="M1474.7 96.3L1351.3 0L1332.3 153.3Z" fill="#cce9f9" stroke="#cce9f9"></path><path d="M294.7 1363.3L291.7 1474.7L386 1356.3Z" fill="#e1f2fb" stroke="#e1f2fb"></path><path d="M396 1560L391 1700.3L521.3 1696.3Z" fill="#9fd8f4" stroke="#9fd8f4"></path><path d="M138.3 1461.7L291.7 1474.7L294.7 1363.3Z" fill="#b6e1f7" stroke="#b6e1f7"></path><path d="M2000 408L1869.7 289.7L1875.7 410Z" fill="#b6e1f7" stroke="#b6e1f7"></path><path d="M1765.3 230.7L1767.3 169.3L1618 265.7Z" fill="#ebf6fd" stroke="#ebf6fd"></path><path d="M1461.7 0L1351.3 0L1474.7 96.3Z" fill="#cce9f9" stroke="#cce9f9"></path><path d="M1060.7 0L913.3 0L953.3 171.3Z" fill="#abdcf5" stroke="#abdcf5"></path><path d="M136.3 970.3L250.7 905.3L121.3 766Z" fill="#abdcf5" stroke="#abdcf5"></path><path d="M136.3 970.3L147.3 1062.7L301.7 1038.7Z" fill="#ebf6fd" stroke="#ebf6fd"></path><path d="M505.3 1878.7L652.7 1849.7L521.3 1696.3Z" fill="#9fd8f4" stroke="#9fd8f4"></path><path d="M521.3 1696.3L652.7 1849.7L672.7 1762.3Z" fill="#9fd8f4" stroke="#9fd8f4"></path><path d="M769 0L641.7 103.3L822 116.3Z" fill="#cce9f9" stroke="#cce9f9"></path><path d="M537.3 254.7L387 229.7L361 397Z" fill="#ebf6fd" stroke="#ebf6fd"></path><path d="M121.3 766L250.7 905.3L263.7 830Z" fill="#d6edfa" stroke="#d6edfa"></path><path d="M1432.7 1874.7L1598 1881.7L1447.7 1750.3Z" fill="#f5fbfe" stroke="#f5fbfe"></path><path d="M1714.3 1742.3L1849.7 1766.3L1754.3 1605Z" fill="#e1f2fb" stroke="#e1f2fb"></path><path d="M1484.7 2000L1598 1881.7L1432.7 1874.7Z" fill="#f5fbfe" stroke="#f5fbfe"></path><path d="M1892.7 148.3L1767.3 169.3L1765.3 230.7Z" fill="#d6edfa" stroke="#d6edfa"></path><path d="M255.7 438L230.7 528.3L407 555.3Z" fill="#9fd8f4" stroke="#9fd8f4"></path><path d="M254.7 652.7L121.3 766L263.7 830Z" fill="#cce9f9" stroke="#cce9f9"></path><path d="M255.7 438L407 555.3L361 397Z" fill="#cce9f9" stroke="#cce9f9"></path><path d="M641.7 103.3L564.3 137.3L679.7 273.7Z" fill="#f5fbfe" stroke="#f5fbfe"></path><path d="M2000 542.3L2000 408L1904.7 503.3Z" fill="#b6e1f7" stroke="#b6e1f7"></path><path d="M1869.7 289.7L1892.7 148.3L1765.3 230.7Z" fill="#9fd8f4" stroke="#9fd8f4"></path><path d="M1581 0L1461.7 0L1474.7 96.3Z" fill="#abdcf5" stroke="#abdcf5"></path><path d="M1581 0L1474.7 96.3L1629 111.3Z" fill="#f5fbfe" stroke="#f5fbfe"></path><path d="M1078.7 2000L1187 1864.7L1056.7 1857.7Z" fill="#d6edfa" stroke="#d6edfa"></path><path d="M1360.3 1887.7L1357.3 2000L1432.7 1874.7Z" fill="#f5fbfe" stroke="#f5fbfe"></path><path d="M1078.7 2000L1056.7 1857.7L924.3 1893.7Z" fill="#e1f2fb" stroke="#e1f2fb"></path><path d="M909.3 2000L1078.7 2000L924.3 1893.7Z" fill="#ffffff" stroke="#ffffff"></path><path d="M229.7 236.7L255.7 438L361 397Z" fill="#ebf6fd" stroke="#ebf6fd"></path><path d="M1193 2000L1357.3 2000L1360.3 1887.7Z" fill="#ebf6fd" stroke="#ebf6fd"></path><path d="M641.7 103.3L560.3 0L564.3 137.3Z" fill="#93d4f3" stroke="#93d4f3"></path><path d="M913.3 0L769 0L822 116.3Z" fill="#f5fbfe" stroke="#f5fbfe"></path><path d="M98.3 672.7L121.3 766L254.7 652.7Z" fill="#ffffff" stroke="#ffffff"></path><path d="M98.3 672.7L254.7 652.7L230.7 528.3Z" fill="#c1e5f8" stroke="#c1e5f8"></path><path d="M283.7 1573L391 1700.3L396 1560Z" fill="#d6edfa" stroke="#d6edfa"></path><path d="M138.3 1461.7L283.7 1573L291.7 1474.7Z" fill="#abdcf5" stroke="#abdcf5"></path><path d="M291.7 1474.7L283.7 1573L396 1560Z" fill="#cce9f9" stroke="#cce9f9"></path><path d="M802 2000L924.3 1893.7L821 1835.7Z" fill="#9fd8f4" stroke="#9fd8f4"></path><path d="M802 2000L821 1835.7L686.7 2000Z" fill="#ffffff" stroke="#ffffff"></path><path d="M1741.3 2000L1768.3 1829.7L1598 1881.7Z" fill="#ffffff" stroke="#ffffff"></path><path d="M1598 1881.7L1768.3 1829.7L1714.3 1742.3Z" fill="#abdcf5" stroke="#abdcf5"></path><path d="M1768.3 1829.7L1849.7 1766.3L1714.3 1742.3Z" fill="#9fd8f4" stroke="#9fd8f4"></path><path d="M423 152.3L387 229.7L537.3 254.7Z" fill="#f5fbfe" stroke="#f5fbfe"></path><path d="M423 152.3L537.3 254.7L564.3 137.3Z" fill="#cce9f9" stroke="#cce9f9"></path><path d="M1726.3 0L1581 0L1629 111.3Z" fill="#d6edfa" stroke="#d6edfa"></path><path d="M0 1088.7L99.3 1178L147.3 1062.7Z" fill="#cce9f9" stroke="#cce9f9"></path><path d="M147.3 1062.7L99.3 1178L305.7 1167Z" fill="#c1e5f8" stroke="#c1e5f8"></path><path d="M0 1088.7L147.3 1062.7L136.3 970.3Z" fill="#d6edfa" stroke="#d6edfa"></path><path d="M1849.7 1766.3L2000 1624L1846.7 1585Z" fill="#9fd8f4" stroke="#9fd8f4"></path><path d="M99.3 1178L124.3 1314.3L305.7 1167Z" fill="#ebf6fd" stroke="#ebf6fd"></path><path d="M1357.3 2000L1484.7 2000L1432.7 1874.7Z" fill="#93d4f3" stroke="#93d4f3"></path><path d="M686.7 2000L821 1835.7L652.7 1849.7Z" fill="#d6edfa" stroke="#d6edfa"></path><path d="M104.3 496.3L98.3 672.7L230.7 528.3Z" fill="#abdcf5" stroke="#abdcf5"></path><path d="M121.3 766L0 927.3L136.3 970.3Z" fill="#93d4f3" stroke="#93d4f3"></path><path d="M104.3 496.3L230.7 528.3L255.7 438Z" fill="#f5fbfe" stroke="#f5fbfe"></path><path d="M769 0L651.7 0L641.7 103.3Z" fill="#ebf6fd" stroke="#ebf6fd"></path><path d="M422 0L423 152.3L564.3 137.3Z" fill="#f5fbfe" stroke="#f5fbfe"></path><path d="M135.3 368L104.3 496.3L255.7 438Z" fill="#abdcf5" stroke="#abdcf5"></path><path d="M391 1700.3L505.3 1878.7L521.3 1696.3Z" fill="#c1e5f8" stroke="#c1e5f8"></path><path d="M373 1860.7L505.3 1878.7L391 1700.3Z" fill="#c1e5f8" stroke="#c1e5f8"></path><path d="M2000 249.7L1892.7 148.3L1869.7 289.7Z" fill="#f5fbfe" stroke="#f5fbfe"></path><path d="M1767.3 169.3L1726.3 0L1629 111.3Z" fill="#cce9f9" stroke="#cce9f9"></path><path d="M1768.3 1829.7L1847.7 1870.7L1849.7 1766.3Z" fill="#ffffff" stroke="#ffffff"></path><path d="M1484.7 2000L1592 2000L1598 1881.7Z" fill="#ebf6fd" stroke="#ebf6fd"></path><path d="M2000 408L2000 249.7L1869.7 289.7Z" fill="#ebf6fd" stroke="#ebf6fd"></path><path d="M124.3 1314.3L138.3 1461.7L294.7 1363.3Z" fill="#cce9f9" stroke="#cce9f9"></path><path d="M283.7 1573L300.7 1724.3L391 1700.3Z" fill="#cce9f9" stroke="#cce9f9"></path><path d="M0 1485.7L138.3 1461.7L124.3 1314.3Z" fill="#b6e1f7" stroke="#b6e1f7"></path><path d="M532.3 2000L686.7 2000L652.7 1849.7Z" fill="#cce9f9" stroke="#cce9f9"></path><path d="M123.3 1570L300.7 1724.3L283.7 1573Z" fill="#b6e1f7" stroke="#b6e1f7"></path><path d="M1900.7 0L1726.3 0L1767.3 169.3Z" fill="#b6e1f7" stroke="#b6e1f7"></path><path d="M1741.3 2000L1847.7 1870.7L1768.3 1829.7Z" fill="#9fd8f4" stroke="#9fd8f4"></path><path d="M1849.7 1766.3L2000 1736.3L2000 1624Z" fill="#93d4f3" stroke="#93d4f3"></path><path d="M651.7 0L560.3 0L641.7 103.3Z" fill="#f5fbfe" stroke="#f5fbfe"></path><path d="M2000 1901.7L2000 1736.3L1849.7 1766.3Z" fill="#e1f2fb" stroke="#e1f2fb"></path><path d="M229.7 236.7L387 229.7L257.7 169.3Z" fill="#9fd8f4" stroke="#9fd8f4"></path><path d="M229.7 236.7L361 397L387 229.7Z" fill="#e1f2fb" stroke="#e1f2fb"></path><path d="M0 803L121.3 766L98.3 672.7Z" fill="#cce9f9" stroke="#cce9f9"></path><path d="M0 803L0 927.3L121.3 766Z" fill="#c1e5f8" stroke="#c1e5f8"></path><path d="M99.3 1178L0 1293.3L124.3 1314.3Z" fill="#e1f2fb" stroke="#e1f2fb"></path><path d="M0 927.3L0 1088.7L136.3 970.3Z" fill="#9fd8f4" stroke="#9fd8f4"></path><path d="M0 636.7L0 803L98.3 672.7Z" fill="#e1f2fb" stroke="#e1f2fb"></path><path d="M0 1088.7L0 1186L99.3 1178Z" fill="#abdcf5" stroke="#abdcf5"></path><path d="M300.7 1724.3L373 1860.7L391 1700.3Z" fill="#cce9f9" stroke="#cce9f9"></path><path d="M505.3 1878.7L532.3 2000L652.7 1849.7Z" fill="#b6e1f7" stroke="#b6e1f7"></path><path d="M280.7 1882.7L373 1860.7L300.7 1724.3Z" fill="#f5fbfe" stroke="#f5fbfe"></path><path d="M257.7 169.3L387 229.7L423 152.3Z" fill="#cce9f9" stroke="#cce9f9"></path><path d="M2000 249.7L2000 160.3L1892.7 148.3Z" fill="#ffffff" stroke="#ffffff"></path><path d="M1892.7 148.3L1900.7 0L1767.3 169.3Z" fill="#93d4f3" stroke="#93d4f3"></path><path d="M229.7 236.7L135.3 368L255.7 438Z" fill="#b6e1f7" stroke="#b6e1f7"></path><path d="M0 538.3L0 636.7L98.3 672.7Z" fill="#cce9f9" stroke="#cce9f9"></path><path d="M1592 2000L1741.3 2000L1598 1881.7Z" fill="#f5fbfe" stroke="#f5fbfe"></path><path d="M1847.7 1870.7L2000 1901.7L1849.7 1766.3Z" fill="#f5fbfe" stroke="#f5fbfe"></path><path d="M0 1485.7L123.3 1570L138.3 1461.7Z" fill="#9fd8f4" stroke="#9fd8f4"></path><path d="M138.3 1461.7L123.3 1570L283.7 1573Z" fill="#d6edfa" stroke="#d6edfa"></path><path d="M0 1186L0 1293.3L99.3 1178Z" fill="#93d4f3" stroke="#93d4f3"></path><path d="M391 2000L532.3 2000L505.3 1878.7Z" fill="#ebf6fd" stroke="#ebf6fd"></path><path d="M0 538.3L98.3 672.7L104.3 496.3Z" fill="#f5fbfe" stroke="#f5fbfe"></path><path d="M229.7 236.7L114.3 284.7L135.3 368Z" fill="#e1f2fb" stroke="#e1f2fb"></path><path d="M422 0L257.7 169.3L423 152.3Z" fill="#ffffff" stroke="#ffffff"></path><path d="M560.3 0L422 0L564.3 137.3Z" fill="#e1f2fb" stroke="#e1f2fb"></path><path d="M0 369L104.3 496.3L135.3 368Z" fill="#abdcf5" stroke="#abdcf5"></path><path d="M0 369L0 538.3L104.3 496.3Z" fill="#ffffff" stroke="#ffffff"></path><path d="M2000 0L1900.7 0L1892.7 148.3Z" fill="#f5fbfe" stroke="#f5fbfe"></path><path d="M161.3 160.3L229.7 236.7L257.7 169.3Z" fill="#abdcf5" stroke="#abdcf5"></path><path d="M161.3 160.3L114.3 284.7L229.7 236.7Z" fill="#ebf6fd" stroke="#ebf6fd"></path><path d="M132.3 1872.7L280.7 1882.7L300.7 1724.3Z" fill="#ffffff" stroke="#ffffff"></path><path d="M373 1860.7L391 2000L505.3 1878.7Z" fill="#b6e1f7" stroke="#b6e1f7"></path><path d="M1741.3 2000L1873.7 2000L1847.7 1870.7Z" fill="#93d4f3" stroke="#93d4f3"></path><path d="M0 1293.3L0 1485.7L124.3 1314.3Z" fill="#abdcf5" stroke="#abdcf5"></path><path d="M123.3 1570L94.3 1740.3L300.7 1724.3Z" fill="#cce9f9" stroke="#cce9f9"></path><path d="M1873.7 2000L2000 1901.7L1847.7 1870.7Z" fill="#ebf6fd" stroke="#ebf6fd"></path><path d="M280.7 1882.7L391 2000L373 1860.7Z" fill="#c1e5f8" stroke="#c1e5f8"></path><path d="M239.7 0L161.3 160.3L257.7 169.3Z" fill="#9fd8f4" stroke="#9fd8f4"></path><path d="M114.3 284.7L0 369L135.3 368Z" fill="#e1f2fb" stroke="#e1f2fb"></path><path d="M2000 160.3L2000 0L1892.7 148.3Z" fill="#ffffff" stroke="#ffffff"></path><path d="M0 261.7L0 369L114.3 284.7Z" fill="#e1f2fb" stroke="#e1f2fb"></path><path d="M0 1601L94.3 1740.3L123.3 1570Z" fill="#9fd8f4" stroke="#9fd8f4"></path><path d="M280.7 1882.7L264.7 2000L391 2000Z" fill="#93d4f3" stroke="#93d4f3"></path><path d="M0 1485.7L0 1601L123.3 1570Z" fill="#b6e1f7" stroke="#b6e1f7"></path><path d="M1873.7 2000L2000 2000L2000 1901.7Z" fill="#abdcf5" stroke="#abdcf5"></path><path d="M422 0L239.7 0L257.7 169.3Z" fill="#9fd8f4" stroke="#9fd8f4"></path><path d="M0 145.3L0 261.7L114.3 284.7Z" fill="#ebf6fd" stroke="#ebf6fd"></path><path d="M0 145.3L114.3 284.7L161.3 160.3Z" fill="#d6edfa" stroke="#d6edfa"></path><path d="M132.3 1872.7L300.7 1724.3L94.3 1740.3Z" fill="#d6edfa" stroke="#d6edfa"></path><path d="M142.3 2000L264.7 2000L280.7 1882.7Z" fill="#f5fbfe" stroke="#f5fbfe"></path><path d="M0 1758.3L132.3 1872.7L94.3 1740.3Z" fill="#93d4f3" stroke="#93d4f3"></path><path d="M0 1601L0 1758.3L94.3 1740.3Z" fill="#c1e5f8" stroke="#c1e5f8"></path><path d="M132.3 1872.7L142.3 2000L280.7 1882.7Z" fill="#e1f2fb" stroke="#e1f2fb"></path><path d="M239.7 0L148.3 0L161.3 160.3Z" fill="#abdcf5" stroke="#abdcf5"></path><path d="M148.3 0L0 145.3L161.3 160.3Z" fill="#cce9f9" stroke="#cce9f9"></path><path d="M0 1902.7L142.3 2000L132.3 1872.7Z" fill="#c1e5f8" stroke="#c1e5f8"></path><path d="M0 1758.3L0 1902.7L132.3 1872.7Z" fill="#e1f2fb" stroke="#e1f2fb"></path><path d="M148.3 0L0 0L0 145.3Z" fill="#b6e1f7" stroke="#b6e1f7"></path><path d="M0 1902.7L0 2000L142.3 2000Z" fill="#f5fbfe" stroke="#f5fbfe"></path></g></svg>