<svg width="310" height="286" viewBox="0 0 310 286" fill="none" xmlns="http://www.w3.org/2000/svg">
<path d="M12.5 47V65.4402L15.2476 95.888L21.2006 129.338L31.5373 160.903C31.6675 161.301 31.8331 161.686 32.0321 162.054L49.8081 194.932C49.9693 195.23 50.1518 195.516 50.3544 195.787L69.7531 221.799C70.0496 222.196 70.3874 222.561 70.7609 222.887L96.7038 245.535C97.045 245.833 97.4144 246.097 97.8066 246.324L124.693 261.85L149.599 271.957C151.249 272.627 153.093 272.643 154.755 272L180.384 262.095C180.806 261.932 181.21 261.729 181.592 261.488L206.204 245.983L233.691 222.774C233.988 222.523 234.264 222.247 234.515 221.951L256.539 195.964C256.868 195.575 257.154 195.152 257.391 194.702L274.893 161.501L286.582 129.925C286.727 129.534 286.836 129.131 286.909 128.721L292.752 95.888L295.5 65.4402V47" stroke="#868484" stroke-width="20"/>
<path d="M41.5 36L68.8516 25.8269L91.4874 19.6346L115.538 15.2115L138.645 13H165.525L190.519 15.2115L215.984 19.6346L240.035 25.8269L265.5 36" stroke="#868484" stroke-width="20"/>
<path d="M269.039 27L270.775 48.326L262.169 44.9379L269.039 27Z" fill="#868484" stroke="#868484"/>
<path d="M153.374 241.251L153.331 13.4291" stroke="#868484" stroke-width="20"/>
<path d="M131.5 38V237L112.617 223.674L96.0939 208.571L81.4594 191.692L64.4645 165.929L51.7183 138.833L43.2208 111.737L38.5 82.8638V61.9866L49.3579 55.7679L77.2107 45.5513L109.312 38H131.5Z" fill="#33A1C4" stroke="#33A1C3" stroke-width="2"/>
<path d="M174.5 38V237L193.992 223.674L211.048 208.571L226.155 191.692L243.698 165.929L256.855 138.833L265.627 111.737L270.5 82.8638V61.9866L259.292 55.7679L230.541 45.5513L197.404 38H174.5Z" fill="#33A1C3" stroke="#33A1C3" stroke-width="2"/>
<path d="M37.9753 26.8386L37.032 48.8184L45.2043 44.9748L37.9753 26.8386Z" fill="#868484" stroke="#868484"/>
<path d="M22 35V47L4 46.5L22 35Z" fill="#868484" stroke="#868484"/>
<path d="M286 37V46.5H305L286 37Z" fill="#868484" stroke="#868484"/>
</svg>
